<svg width="66" height="52" viewBox="0 0 66 52" fill="none" xmlns="http://www.w3.org/2000/svg">
<path d="M10.0417 51.2771H56.6225C62.196 51.2771 65.4304 48.0427 65.4304 41.8627V9.95215C65.4304 3.77219 62.1671 0.537811 55.9294 0.537811H9.34861C3.77509 0.537811 0.54071 3.74331 0.54071 9.95215V41.8627C0.54071 48.0427 3.80396 51.2771 10.0417 51.2771ZM29.7367 26.9037L8.71328 6.11133C9.11758 6.0247 9.57963 5.96694 10.0706 5.96694H55.9005C56.4203 5.96694 56.8824 6.0247 57.3155 6.14021L36.321 26.9037C35.1081 28.0878 34.0974 28.6076 33.0289 28.6076C31.9604 28.6076 30.9496 28.0589 29.7367 26.9037ZM5.94096 10.3565L21.6508 25.8064L5.94096 41.3429V10.3565ZM44.4069 25.8064L60.0301 10.4431V41.2852L44.4069 25.8064ZM10.0706 45.8191C9.55075 45.8191 9.05982 45.7613 8.62665 45.6747L25.1739 29.2718L26.7334 30.8312C28.8415 32.8816 30.863 33.7479 33.0289 33.7479C35.1659 33.7479 37.2162 32.8816 39.2955 30.8312L40.8838 29.2718L57.4022 45.6458C56.9401 45.7613 56.4492 45.8191 55.9005 45.8191H10.0706Z" fill="#BDBDBD"/>
</svg>
