<svg width="20" height="20" viewBox="0 0 20 20" fill="none" xmlns="http://www.w3.org/2000/svg">
<path d="M19.2449 8.26199L11.087 8.2616C10.7268 8.2616 10.4348 8.55355 10.4348 8.91378V11.5198C10.4348 11.88 10.7268 12.172 11.087 12.172H15.681C15.1779 13.4775 14.239 14.5709 13.0411 15.2655L15 18.6565C18.1423 16.8392 20 13.6506 20 10.0811C20 9.57289 19.9625 9.20957 19.8876 8.80046C19.8307 8.48964 19.5608 8.26199 19.2449 8.26199Z" fill="#007AFF"/>
<path d="M10 16.0877C7.75179 16.0877 5.78914 14.8593 4.73504 13.0416L1.34418 14.9961C3.06976 17.9868 6.30234 20.0007 10 20.0007C11.8139 20.0007 13.5255 19.5123 15 18.6612V18.6565L13.0411 15.2655C12.1451 15.7852 11.1082 16.0877 10 16.0877Z" fill="#12B347"/>
<path d="M15 18.6612V18.6565L13.0411 15.2655C12.1451 15.7852 11.1083 16.0877 10 16.0877V20.0007C11.8139 20.0007 13.5256 19.5123 15 18.6612Z" fill="#0F993E"/>
<path d="M3.91305 10.0007C3.91305 8.89256 4.21547 7.8558 4.73504 6.95982L1.34418 5.00537C0.488359 6.47518 0 8.18213 0 10.0007C0 11.8193 0.488359 13.5263 1.34418 14.9961L4.73504 13.0416C4.21547 12.1456 3.91305 11.1089 3.91305 10.0007Z" fill="#FFD500"/>
<path d="M10 3.91378C11.4661 3.91378 12.8127 4.43472 13.8645 5.30124C14.124 5.51499 14.5012 5.49956 14.7389 5.26186L16.5853 3.41538C16.855 3.14569 16.8358 2.70425 16.5477 2.45433C14.7854 0.925459 12.4925 0.000732422 10 0.000732422C6.30234 0.000732422 3.06976 2.01468 1.34418 5.00538L4.73504 6.95983C5.78914 5.14214 7.75179 3.91378 10 3.91378Z" fill="#FF4B26"/>
<path d="M13.8645 5.30124C14.124 5.51499 14.5012 5.49956 14.7389 5.26187L16.5854 3.41538C16.855 3.14569 16.8358 2.70425 16.5477 2.45433C14.7854 0.92542 12.4925 0.000732422 10 0.000732422V3.91378C11.466 3.91378 12.8127 4.43472 13.8645 5.30124Z" fill="#D93F21"/>
</svg>
