<svg width="54" height="54" viewBox="0 0 54 54" fill="none" xmlns="http://www.w3.org/2000/svg">
<path d="M27 0.224976C21.7044 0.224976 16.5277 1.7953 12.1246 4.73738C7.72147 7.67945 4.28965 11.8611 2.26311 16.7536C0.236577 21.6461 -0.293658 27.0297 0.739462 32.2235C1.77258 37.4174 4.32265 42.1882 8.0672 45.9328C11.8118 49.6773 16.5826 52.2274 21.7764 53.2605C26.9703 54.2936 32.3538 53.7634 37.2463 51.7369C42.1388 49.7103 46.3205 46.2785 49.2626 41.8754C52.2047 37.4722 53.775 32.2956 53.775 27C53.7667 19.9014 50.943 13.0959 45.9236 8.0764C40.9041 3.05692 34.0986 0.233312 27 0.224976V0.224976ZM46.107 42.156C44.993 41.9039 43.897 41.5777 42.8265 41.1795C40.356 40.473 40.8285 38.9295 40.8285 38.9295L41.0625 38.8125C44.7075 38.4615 46.5885 37.521 46.5885 37.521C46.8756 37.4181 47.122 37.2256 47.2913 36.972C47.4606 36.7184 47.544 36.4171 47.529 36.1125C47.2602 34.2527 46.7457 32.4369 45.999 30.7125C45.1755 28.4625 45.1755 25.3125 45.1755 25.3125V22.374C45.0585 18.729 44.586 17.9055 44.586 17.9055C42.5925 13.5585 39.42 13.2075 39.42 13.2075C35.775 12.501 34.02 14.499 34.02 14.499C33.8396 14.3562 33.6322 14.2515 33.4102 14.1911C33.1882 14.1308 32.9563 14.1161 32.7285 14.148C28.6065 14.148 27.9 18.9675 27.9 18.9675C27.3105 20.7315 27.666 26.8425 27.666 26.8425C27.783 28.017 26.2575 32.2425 26.2575 32.2425C24.966 35.649 25.317 36.711 25.317 36.711C26.0955 37.9215 29.367 38.5605 31.0275 38.8125C31.1801 38.8365 31.3239 38.8995 31.4451 38.9952C31.5663 39.0909 31.6608 39.2162 31.7196 39.3591C31.7784 39.5019 31.7994 39.6575 31.7806 39.8108C31.7619 39.9641 31.704 40.11 31.6125 40.2345C30.8565 41.211 29.313 41.5305 29.313 41.5305C21.087 43.2945 21.087 44.001 21.087 44.001C19.332 45.27 18.387 47.439 17.838 49.3245C17.085 49.0245 16.35 48.6915 15.633 48.3255C15.606 48.447 15.588 48.5595 15.561 48.681C15.588 48.564 15.606 48.447 15.633 48.3255C15.9071 47.051 16.3617 45.8221 16.983 44.676C16.983 44.676 18.2565 41.3325 23.5125 40.3335C24.3135 40.1805 24.498 39.4335 23.688 39.1275C23.3319 38.9652 23.0302 38.7035 22.8195 38.3737C22.6087 38.044 22.4977 37.6603 22.5 37.269L22.3965 35.9505C22.3832 35.823 22.4204 35.6954 22.5 35.595C23.3424 34.606 23.8718 33.389 24.021 32.0985C24.021 32.0985 24.1155 31.14 24.2235 30.519C24.2423 30.4085 24.3017 30.309 24.39 30.24C24.7406 29.9309 25.0166 29.5464 25.1974 29.1155C25.3782 28.6845 25.4591 28.2182 25.434 27.7515V27.3015C25.9539 26.3283 26.0796 25.1923 25.785 24.129C25.7142 23.9465 25.6017 23.7832 25.4565 23.652C25.4152 23.6129 25.3851 23.5635 25.3693 23.5089C25.3535 23.4544 25.3525 23.3966 25.3665 23.3415C25.7579 21.5559 25.8612 19.7192 25.6725 17.901C25.6725 17.901 25.3215 14.9625 23.3235 13.4325C21.8189 12.28 20.034 11.5499 18.153 11.3175C18.153 11.3175 14.7465 10.8675 13.203 11.6685C13.203 11.6685 12.2625 12.0195 11.205 13.5495L10.854 13.9995C10.854 13.9995 9.08999 14.2335 8.85599 15.8805C8.85599 15.8805 8.40599 16.47 8.26649 19.404C8.2746 20.6517 8.37538 21.8972 8.56799 23.13C8.58224 23.2047 8.57822 23.2818 8.55628 23.3547C8.53435 23.4275 8.49514 23.494 8.44199 23.5485C8.11799 23.877 7.54199 24.7815 8.14499 26.5725L8.37899 27.396C8.37899 27.396 8.37899 29.511 9.43649 30.2175L9.67049 30.3345C9.67049 30.3345 9.67049 33.156 10.728 34.5645C10.9851 34.9593 11.2955 35.3167 11.6505 35.6265C11.6915 35.6609 11.7239 35.7045 11.745 35.7538C11.7661 35.803 11.7754 35.8565 11.772 35.91C11.7405 36.315 11.6505 37.3365 11.556 37.8225C11.5515 37.8488 11.5439 37.8744 11.5335 37.899C11.3834 38.2692 11.1464 38.5978 10.8425 38.857C10.5385 39.1163 10.1767 39.2986 9.78749 39.3885C9.78749 39.3885 8.18099 39.6675 6.31799 40.1175C6.52049 40.4145 6.74099 40.707 6.95699 40.995C6.74099 40.707 6.50699 40.419 6.31799 40.1175H6.27749C4.24609 36.9037 2.98984 33.2616 2.60798 29.4788C2.22613 25.6961 2.72913 21.8764 4.07725 18.3215C5.42538 14.7665 7.58169 11.5738 10.3758 8.99549C13.17 6.41717 16.5254 4.52392 20.177 3.4653C23.8286 2.40668 27.6764 2.21169 31.4163 2.89575C35.1562 3.5798 38.6858 5.12416 41.7263 7.40681C44.7667 9.68945 47.2348 12.6479 48.9353 16.0483C50.6359 19.4487 51.5225 23.198 51.525 27C51.5276 32.5157 49.6605 37.8695 46.2285 42.1875L46.107 42.156Z" fill="#888888"/>
</svg>
