<svg width="22" height="22" viewBox="0 0 22 22" fill="none" xmlns="http://www.w3.org/2000/svg">
<circle cx="11" cy="11" r="10.5" stroke="#BDBDBD"/>
<g clip-path="url(#clip0_1_158)">
<path d="M11.7207 7.02404C11.6609 7.08231 11.6273 7.16238 11.6276 7.24591L11.6276 8.8735C11.6276 9.00046 11.5247 9.10339 11.3977 9.10339L6.30804 9.10339C6.13791 9.10339 6 9.2413 6 9.41143L6 12.5793C6 12.7494 6.13791 12.8873 6.30804 12.8873L11.3977 12.8873C11.5247 12.8873 11.6276 12.9902 11.6276 13.1172L11.6276 14.7494C11.6244 14.9195 11.7597 15.06 11.9297 15.0632C12.0149 15.0648 12.0969 15.0311 12.1563 14.9701L15.908 11.2183C15.966 11.1613 15.9991 11.0836 16 11.0022C16.0003 10.9193 15.9672 10.8397 15.908 10.7815L12.1563 7.02981C12.0376 6.90794 11.8426 6.90535 11.7207 7.02404Z" fill="#BDBDBD"/>
</g>
<defs>
<clipPath id="clip0_1_158">
<rect width="10" height="10" fill="white" transform="translate(6 16) rotate(-90)"/>
</clipPath>
</defs>
</svg>
