<svg width="98" height="16" viewBox="0 0 98 16" fill="none" xmlns="http://www.w3.org/2000/svg">
<path d="M92.7081 0.5C93.4284 0.5 94.1965 0.573855 95.0123 0.721565C95.8281 0.869276 96.5374 1.0613 97.1401 1.29764V4.11152L97.1134 4.09978C96.6656 3.90393 96.0112 3.6992 95.1501 3.4856C94.2718 3.26773 93.4504 3.15879 92.6861 3.15879C92.3847 3.15879 92.1293 3.16802 91.9198 3.18649C91.7104 3.20495 91.4917 3.24557 91.2639 3.30835C91.036 3.37112 90.8523 3.45975 90.7126 3.57423C90.573 3.6887 90.4572 3.84749 90.3654 4.05059C90.2735 4.25369 90.2275 4.49927 90.2275 4.7873C90.2275 5.17873 90.3709 5.5 90.6575 5.75111C90.9442 6.00222 91.3153 6.19239 91.771 6.32164C92.2267 6.45088 92.7302 6.5709 93.2814 6.68169C93.8326 6.79247 94.3857 6.93648 94.9406 7.11374C95.4956 7.29099 96.0008 7.5181 96.4565 7.79506C96.9122 8.07201 97.2834 8.47822 97.57 9.01367C97.8567 9.54912 98 10.1972 98 10.9579C98 11.6078 97.9063 12.1894 97.7189 12.7027C97.5314 13.216 97.2724 13.6462 96.9416 13.9934C96.6109 14.3405 96.2103 14.6285 95.7399 14.8575C95.2695 15.0864 94.7661 15.2507 94.2295 15.3504C93.693 15.4501 93.1124 15.5 92.4876 15.5C90.6061 15.5 88.9266 15.1603 87.4493 14.4808V11.4564L87.5091 11.4872C88.1494 11.8139 88.8865 12.0972 89.7204 12.3371C90.5803 12.5846 91.3962 12.7083 92.1679 12.7083C93.0719 12.7083 93.7389 12.579 94.1689 12.3205C94.5989 12.062 94.8139 11.6226 94.8139 11.0022C94.8139 10.6994 94.7257 10.4409 94.5493 10.2267C94.3729 10.0126 94.134 9.84638 93.8326 9.72822C93.5313 9.61005 93.1859 9.50664 92.7963 9.41802C92.4068 9.32939 91.9989 9.24261 91.5726 9.15768C91.1463 9.07275 90.7182 8.97674 90.2882 8.86965C89.8582 8.76256 89.4485 8.61115 89.0589 8.41544C88.6694 8.21972 88.3239 7.98338 88.0226 7.70642C87.7213 7.42947 87.4824 7.06388 87.306 6.60967C87.1296 6.15546 87.0414 5.63294 87.0414 5.0421C87.0414 4.22969 87.1884 3.52253 87.4824 2.9206C87.7764 2.31868 88.188 1.84601 88.7171 1.50259C89.2463 1.15916 89.8417 0.906204 90.5032 0.743723C91.1646 0.581241 91.8996 0.5 92.7081 0.5ZM26.6985 0.7548L26.7644 0.754989C27.7513 0.760643 28.6168 0.893519 29.3609 1.15362C30.1216 1.4195 30.7225 1.78877 31.1635 2.26145C31.6045 2.73412 31.9297 3.26773 32.1392 3.86226C32.3486 4.4568 32.4534 5.11226 32.4534 5.82866C32.4534 6.55982 32.345 7.21898 32.1281 7.80613C31.9113 8.39328 31.6173 8.88257 31.2462 9.274C30.875 9.66544 30.4377 9.9904 29.9342 10.2489C29.4308 10.5074 28.9016 10.6939 28.3466 10.8083C27.7917 10.9228 27.2093 10.9801 26.5992 10.9801C25.5409 10.9801 24.714 10.9136 24.1187 10.7807V15.0901H21.0758V0.7548H26.6985ZM43.4186 0.7548L50.6509 15.0901H47.3324L46.1528 12.5753H39.8576L38.7 15.0901H35.5469L42.5807 0.7548H43.4186ZM59.6978 0.7548V15.0901H56.6549V0.7548H59.6978ZM73.1215 0.7548L73.1902 0.755011C74.6765 0.764048 76.006 1.06678 77.1786 1.66322C78.3693 2.26883 79.2972 3.11817 79.9624 4.21123C80.6275 5.30428 80.9601 6.54136 80.9601 7.92245C80.9601 9.31832 80.6294 10.5609 79.9679 11.6503C79.3064 12.7397 78.3803 13.5853 77.1897 14.1872C75.999 14.7891 74.643 15.0901 73.1215 15.0901H67.6422V0.7548H73.1215ZM4.03659 0.711375L9.787 7.78065L9.03905 8.69266L3.87071 15.0464H0L6.03453 7.77899L0.16588 0.711375H4.03659ZM10.076 9.04571L15.2611 15.0464H11.3878L8.29407 11.1253L10.076 9.04571ZM72.7136 3.40251H70.663V12.4535H72.7136C74.3085 12.4535 75.5543 12.0528 76.451 11.2515C77.3477 10.4501 77.796 9.34047 77.796 7.92245C77.796 6.50443 77.3477 5.3966 76.451 4.59897C75.5543 3.80133 74.3085 3.40251 72.7136 3.40251ZM42.9886 5.74003L40.9601 10.1713H45.0503L42.9886 5.74003ZM26.511 3.42467H24.1187V8.26588L24.1421 8.27059C24.5768 8.35608 25.2525 8.39882 26.1693 8.39882C27.1174 8.39882 27.8707 8.18833 28.4293 7.76736C28.9879 7.34638 29.2672 6.67799 29.2672 5.76219C29.2672 5.0384 29.0633 4.46787 28.6553 4.05059C28.2474 3.63331 27.5327 3.42467 26.511 3.42467ZM15.427 0.711375L10.2419 6.7121L8.45995 4.63246L11.5537 0.711375H15.427Z" fill="#1D1D1F"/>
</svg>
