<svg width="217" height="22" viewBox="0 0 217 22" fill="none" xmlns="http://www.w3.org/2000/svg">
<path d="M128.25 0.5C129.246 0.5 130.308 0.603396 131.437 0.810191C132.531 1.01072 133.487 1.26958 134.304 1.58678L134.381 1.61669V5.55613L134.344 5.5397C133.724 5.2655 132.819 4.97888 131.628 4.67984C130.413 4.37482 129.276 4.22231 128.219 4.22231C127.802 4.22231 127.449 4.23523 127.159 4.26108C126.869 4.28693 126.567 4.3438 126.252 4.43168C125.936 4.51957 125.682 4.64365 125.489 4.80392C125.296 4.96418 125.136 5.18649 125.009 5.47083C124.882 5.75517 124.818 6.09897 124.818 6.50222C124.818 7.05023 125.016 7.5 125.413 7.85156C125.809 8.20311 126.323 8.46935 126.953 8.65029C127.584 8.83124 128.28 8.99927 129.043 9.15436C129.805 9.30946 130.57 9.51108 131.338 9.75923C132.106 10.0074 132.805 10.3253 133.435 10.7131C134.065 11.1008 134.579 11.6695 134.975 12.4191C135.372 13.1688 135.57 14.0761 135.57 15.1411C135.57 16.051 135.441 16.8652 135.181 17.5838C134.922 18.3024 134.564 18.9047 134.106 19.3907C133.649 19.8767 133.094 20.2799 132.444 20.6004C131.793 20.921 131.096 21.151 130.354 21.2906C129.612 21.4302 128.809 21.5 127.944 21.5C125.377 21.5 123.082 21.0373 121.059 20.1119L120.975 20.0731V15.839L121.057 15.8821C121.943 16.3395 122.963 16.7361 124.116 17.072C125.306 17.4184 126.435 17.5916 127.502 17.5916C128.753 17.5916 129.676 17.4106 130.27 17.0487C130.865 16.6869 131.163 16.0716 131.163 15.2031C131.163 14.7792 131.041 14.4173 130.797 14.1174C130.552 13.8176 130.222 13.5849 129.805 13.4195C129.388 13.2541 128.91 13.1093 128.372 12.9852C127.833 12.8611 127.268 12.7397 126.679 12.6208C126.089 12.5018 125.497 12.3674 124.902 12.2175C124.307 12.0676 123.74 11.8556 123.201 11.5816C122.662 11.3076 122.185 10.9767 121.768 10.589C121.351 10.2013 121.02 9.68944 120.776 9.05354C120.532 8.41765 120.41 7.68612 120.41 6.85894C120.41 5.72157 120.614 4.73153 121.02 3.88885C121.427 3.04616 121.996 2.38442 122.729 1.90362C123.461 1.42282 124.284 1.06869 125.199 0.841212C126.114 0.613738 127.131 0.5 128.25 0.5ZM36.9338 0.85672L37.0251 0.856984C38.3902 0.8649 39.5875 1.05093 40.617 1.41506C41.6693 1.7873 42.5005 2.30428 43.1106 2.96603C43.7206 3.62777 44.1706 4.37482 44.4603 5.20717C44.7501 6.03951 44.895 6.95716 44.895 7.96012C44.895 8.98375 44.745 9.90657 44.4451 10.7286C44.1451 11.5506 43.7384 12.2356 43.225 12.7836C42.7115 13.3316 42.1065 13.7866 41.4101 14.1485C40.7136 14.5103 39.9815 14.7714 39.2139 14.9317C38.4462 15.092 37.6405 15.1721 36.7965 15.1721C35.359 15.1721 34.2303 15.0824 33.4102 14.903L33.365 14.8929V20.9261H29.1556V0.85672H36.9338ZM60.0639 0.85672L70.0688 20.9261H65.4782L63.8463 17.4055H55.1378L53.5364 20.9261H49.1745L58.9048 0.85672H60.0639ZM82.584 0.85672V20.9261H78.3747V0.85672H82.584ZM101.154 0.85672L101.249 0.857015C103.305 0.869667 105.144 1.2935 106.767 2.12851C108.414 2.97637 109.697 4.16544 110.618 5.69572C111.538 7.226 111.998 8.9579 111.998 10.8914C111.998 12.8456 111.54 14.5853 110.625 16.1104C109.71 17.6355 108.429 18.8194 106.782 19.6621C105.16 20.492 103.316 20.9133 101.25 20.9259L101.154 20.9261H93.5741V0.85672H101.154ZM5.58409 0.795925L13.539 10.6929L12.5043 11.9697L5.35462 20.865H0L8.34798 10.6906L0.229474 0.795925H5.58409ZM13.9389 12.464L21.1117 20.865H15.7535L11.4738 15.3755L13.9389 12.464ZM207.625 13.0933C208.812 13.0933 209.682 13.8065 209.716 14.7904H209.137C209.082 14.0901 208.474 13.6261 207.608 13.6261C206.763 13.6261 206.137 14.1029 206.137 14.7861C206.137 15.3188 206.518 15.6324 207.413 15.8644L208.072 16.0363C209.298 16.3499 209.813 16.8268 209.813 17.6904C209.813 18.7773 208.951 19.4905 207.603 19.4905C206.328 19.4905 205.432 18.773 205.369 17.7076H205.947C206.011 18.4508 206.699 18.9578 207.654 18.9578C208.567 18.9578 209.222 18.4508 209.222 17.7548C209.222 17.1748 208.829 16.8311 207.925 16.5991L207.168 16.4015C206.04 16.1093 205.538 15.6238 205.538 14.8075C205.538 13.8065 206.425 13.0933 207.625 13.0933ZM177.673 13.1921L179.95 19.3917H179.341L178.665 17.4927H176.105L175.429 19.3917H174.817L177.098 13.1921H177.673ZM172.759 13.1921V13.7249H170.743V19.3917H170.165V13.7249H168.154V13.1921H172.759ZM164.917 13.1921V13.7249H161.812V15.9547H164.76V16.4788H161.812V18.859H164.917V19.3917H161.237V13.1921H164.917ZM152.225 13.1921L154.485 18.6184H154.511L156.767 13.1921H157.434V19.3917H156.893V14.3049H156.868L154.747 19.3616H154.244L152.128 14.3049H152.102V19.3917H151.562V13.1921H152.225ZM182.781 13.1921L184.724 18.6613H184.75L186.697 13.1921H187.306L185.024 19.3917H184.45L182.168 13.1921H182.781ZM194.315 13.1921V13.7249H191.21V15.9547H194.159V16.4788H191.21V18.859H194.315V19.3917H190.636V13.1921H194.315ZM200.112 13.1921C201.304 13.1921 202.064 13.901 202.064 15.0052C202.064 15.8816 201.574 16.5433 200.759 16.7581L202.237 19.3917H201.561L200.159 16.8526H198.537V19.3917H197.962V13.1921H200.112ZM217 13.1921V13.7249H213.895V15.9547H216.844V16.4788H213.895V18.859H217V19.3917H213.32V13.1921H217ZM100.59 4.56351H97.753V17.2349H100.59C102.796 17.2349 104.52 16.6739 105.76 15.5521C107 14.4302 107.621 12.8767 107.621 10.8914C107.621 8.90621 107 7.35524 105.76 6.23855C104.52 5.12186 102.796 4.56351 100.59 4.56351ZM177.398 13.9182H177.373L176.279 16.9858H178.492L177.398 13.9182ZM200.045 13.7163H198.537V16.3327H200.066C200.953 16.3327 201.468 15.8515 201.468 15.0224C201.468 14.2018 200.932 13.7163 200.045 13.7163ZM59.4692 7.83604L56.6629 14.0399H62.3212L59.4692 7.83604ZM36.6745 4.59454H33.365V11.3722L33.3975 11.3788C33.9988 11.4985 34.9335 11.5583 36.2017 11.5583C37.5134 11.5583 38.5555 11.2637 39.3283 10.6743C40.101 10.0849 40.4874 9.14919 40.4874 7.86706C40.4874 6.85377 40.2052 6.05502 39.6409 5.47083C39.0766 4.88663 38.0878 4.59454 36.6745 4.59454ZM21.3412 0.795925L14.1684 9.19694L11.7032 6.28544L15.983 0.795925H21.3412ZM199.043 2.5347C200.324 2.5347 201.308 3.31233 201.536 4.49811H200.936C200.687 3.61307 199.973 3.08033 199.043 3.08033C197.721 3.08033 196.897 4.08137 196.897 5.69678C196.897 7.33368 197.738 8.38628 199.043 8.38628C200.222 8.38628 201 7.62153 201 6.45294V6.23382H199.107V5.71827H201.574V6.31545C201.574 7.95235 200.628 8.93191 199.043 8.93191C197.392 8.93191 196.306 7.6516 196.306 5.69678C196.306 3.77633 197.379 2.5347 199.043 2.5347ZM161.698 2.63352L163.975 8.83309H163.366L162.69 6.93413H160.13L159.454 8.83309H158.842L161.123 2.63352H161.698ZM153.754 2.63352C154.802 2.63352 155.512 3.24789 155.512 4.163C155.512 4.85041 155.047 5.439 154.396 5.5593V5.58938C155.241 5.69249 155.829 6.27249 155.829 7.13175C155.829 8.18864 155.056 8.83309 153.767 8.83309H151.562V2.63352H153.754ZM167.879 2.63352L171.453 7.81057H171.483V2.63352H172.053V8.83309H171.495L167.909 3.65174H167.879V8.83309H167.309V2.63352H167.879ZM176.431 2.63352V5.84715H176.464L179.363 2.63352H180.093L177.588 5.37456L180.343 8.83309H179.603L177.183 5.7913L176.431 6.62049V8.83309H175.856V2.63352H176.431ZM184.201 2.63352V8.83309H183.626V2.63352H184.201ZM188.574 2.63352L192.148 7.81057H192.178V2.63352H192.748V8.83309H192.19L188.603 3.65174H188.574V8.83309H188.004V2.63352H188.574ZM153.611 5.89441H152.136V8.31324H153.687C154.684 8.31324 155.237 7.87072 155.237 7.10168C155.237 6.32834 154.663 5.89441 153.611 5.89441ZM161.423 3.35959H161.398L160.303 6.42716H162.517L161.423 3.35959ZM153.632 3.15337H152.136V5.38745H153.463C154.388 5.38745 154.929 4.95782 154.929 4.22745C154.929 3.55292 154.443 3.15337 153.632 3.15337Z" fill="#1D1D1F"/>
</svg>
