<svg width="16" height="21" viewBox="0 0 16 21" fill="none" xmlns="http://www.w3.org/2000/svg">
<path d="M11.7762 0C11.8219 0 11.8675 0 11.9158 0C12.0278 1.41044 11.4995 2.46432 10.8575 3.22751C10.2275 3.98542 9.36489 4.7205 7.96965 4.60897C7.87658 3.21872 8.40572 2.24301 9.04689 1.48158C9.64152 0.771967 10.7317 0.140517 11.7762 0Z" fill="black"/>
<path d="M16 14.6819C16 14.696 16 14.7083 16 14.7215C15.6079 15.9317 15.0486 16.9689 14.366 17.9314C13.743 18.8053 12.9794 19.9812 11.6161 19.9812C10.438 19.9812 9.6555 19.2092 8.44813 19.1882C7.17096 19.1671 6.4686 19.8337 5.30087 20.0014C5.16729 20.0014 5.03372 20.0014 4.90273 20.0014C4.04524 19.8749 3.35323 19.1829 2.84908 18.5593C1.36249 16.7168 0.213724 14.3368 0 11.2911C0 10.9925 0 10.6948 0 10.3962C0.090488 8.2164 1.12981 6.44412 2.51126 5.58521C3.24033 5.12853 4.24259 4.73947 5.35861 4.91336C5.83691 4.98889 6.32554 5.15575 6.75385 5.32086C7.15975 5.47982 7.66735 5.76173 8.14823 5.7468C8.47398 5.73714 8.79802 5.56413 9.12636 5.44206C10.0881 5.08813 11.0309 4.68239 12.2736 4.87296C13.7671 5.10306 14.8271 5.7793 15.4821 6.82264C14.2187 7.64203 13.2199 8.87683 13.3905 10.9855C13.5422 12.9009 14.6349 14.0215 16 14.6819Z" fill="black"/>
</svg>
