<svg width="12" height="13" viewBox="0 0 12 13" fill="none" xmlns="http://www.w3.org/2000/svg">
<path d="M5.99432 12.62C9.19793 12.62 11.8422 9.97573 11.8422 6.77776C11.8422 3.5798 9.19228 0.935547 5.98866 0.935547C2.7907 0.935547 0.1521 3.5798 0.1521 6.77776C0.1521 9.97573 2.79635 12.62 5.99432 12.62ZM5.99432 11.4561C3.40091 11.4561 1.32732 9.37116 1.32732 6.77776C1.32732 4.18436 3.40091 2.10512 5.98866 2.10512C8.58207 2.10512 10.667 4.18436 10.6726 6.77776C10.6783 9.37116 8.58772 11.4561 5.99432 11.4561ZM5.98866 7.71568C6.29942 7.71568 6.48022 7.54053 6.48587 7.21282L6.57063 4.49512C6.58193 4.16176 6.33332 3.91881 5.98301 3.91881C5.63271 3.91881 5.38975 4.15611 5.40105 4.48947L5.48015 7.21282C5.49146 7.53488 5.67226 7.71568 5.98866 7.71568ZM5.98866 9.59152C6.35592 9.59152 6.65538 9.32596 6.65538 8.96436C6.65538 8.6084 6.36157 8.34284 5.98866 8.34284C5.62141 8.34284 5.32195 8.6084 5.32195 8.96436C5.32195 9.32031 5.62706 9.59152 5.98866 9.59152Z" fill="#D66262"/>
</svg>
