<svg width="20" height="20" viewBox="0 0 20 20" fill="none" xmlns="http://www.w3.org/2000/svg">
<g clip-path="url(#clip0_1_194)">
<path d="M18.5842 19.6559C19.176 19.6559 19.6479 19.1764 19.6479 18.5919V1.40941C19.6479 0.817424 19.1685 0.345337 18.5842 0.345337H1.40821C0.823945 0.345337 0.344543 0.824917 0.344543 1.40941V18.5919C0.344543 19.1839 0.823945 19.6559 1.40821 19.6559H18.5842Z" fill="#157DC3"/>
<path d="M13.6629 19.656V12.1776H16.1723L16.5468 9.26262H13.6629V7.40425C13.6629 6.55749 13.8951 5.98799 15.1086 5.98799H16.6517V3.37278C16.382 3.33531 15.4682 3.26038 14.4045 3.26038C12.1798 3.26038 10.6592 4.61669 10.6592 7.11201V9.26262H8.14233V12.1776H10.6592V19.656H13.6629Z" fill="white"/>
</g>
<defs>
<clipPath id="clip0_1_194">
<rect width="20" height="20" fill="white" transform="translate(0 0.000732422)"/>
</clipPath>
</defs>
</svg>
