<svg width="157" height="16" viewBox="0 0 157 16" fill="none" xmlns="http://www.w3.org/2000/svg">
<path d="M92.7888 0.5C93.5097 0.5 94.2785 0.573854 95.095 0.721565C95.8868 0.864799 96.5783 1.0497 97.1695 1.27627L97.2246 1.29764V4.11152L97.198 4.09978C96.7498 3.90393 96.0948 3.6992 95.2329 3.4856C94.3539 3.26773 93.5318 3.15879 92.7668 3.15879C92.4652 3.15879 92.2095 3.16802 91.9999 3.18649C91.7902 3.20495 91.5714 3.24557 91.3433 3.30835C91.1153 3.37112 90.9314 3.45975 90.7916 3.57423C90.6518 3.6887 90.536 3.84749 90.444 4.05059C90.3521 4.25369 90.3061 4.49927 90.3061 4.7873C90.3061 5.17873 90.4495 5.5 90.7364 5.75111C91.0233 6.00222 91.3948 6.19239 91.8509 6.32164C92.307 6.45088 92.8109 6.5709 93.3626 6.68169C93.9143 6.79247 94.4679 6.93648 95.0233 7.11374C95.5787 7.29099 96.0844 7.5181 96.5405 7.79506C96.9966 8.07201 97.3681 8.47822 97.655 9.01367C97.9419 9.54912 98.0853 10.1972 98.0853 10.9579C98.0853 11.6078 97.9915 12.1894 97.8039 12.7027C97.6164 13.216 97.3571 13.6462 97.026 13.9934C96.695 14.3405 96.2941 14.6285 95.8233 14.8575C95.3525 15.0864 94.8486 15.2507 94.3116 15.3504C93.7746 15.4501 93.1934 15.5 92.5681 15.5C90.7107 15.5 89.0501 15.1695 87.5863 14.5085L87.5254 14.4808V11.4564L87.5853 11.4872C88.2262 11.8139 88.9639 12.0972 89.7985 12.3371C90.6592 12.5846 91.4757 12.7083 92.2482 12.7083C93.153 12.7083 93.8205 12.579 94.2509 12.3205C94.6812 12.062 94.8964 11.6226 94.8964 11.0022C94.8964 10.6994 94.8081 10.4409 94.6316 10.2267C94.455 10.0126 94.2159 9.84638 93.9143 9.72822C93.6127 9.61005 93.267 9.50664 92.8771 9.41802C92.4872 9.32939 92.0789 9.24261 91.6523 9.15768C91.2256 9.07275 90.7971 8.97674 90.3668 8.86965C89.9365 8.76256 89.5263 8.61115 89.1365 8.41544C88.7466 8.21972 88.4008 7.98338 88.0992 7.70642C87.7976 7.42947 87.5585 7.06388 87.382 6.60967C87.2054 6.15546 87.1172 5.63294 87.1172 5.0421C87.1172 4.22969 87.2643 3.52253 87.5585 2.9206C87.8528 2.31868 88.2647 1.84601 88.7944 1.50259C89.324 1.15916 89.9199 0.906205 90.582 0.743723C91.244 0.581241 91.9796 0.5 92.7888 0.5ZM26.7217 0.7548L26.7877 0.754989C27.7754 0.760643 28.6417 0.893519 29.3865 1.15362C30.1479 1.4195 30.7492 1.78877 31.1906 2.26145C31.632 2.73412 31.9575 3.26773 32.1672 3.86226C32.3768 4.4568 32.4816 5.11226 32.4816 5.82866C32.4816 6.55982 32.3731 7.21898 32.1561 7.80613C31.9391 8.39328 31.6449 8.88257 31.2734 9.274C30.9019 9.66544 30.4642 9.9904 29.9603 10.2489C29.4564 10.5074 28.9267 10.6939 28.3713 10.8083C27.8159 10.9228 27.233 10.9801 26.6224 10.9801C25.5823 10.9801 24.7657 10.916 24.1724 10.7878L24.1397 10.7807V15.0901H21.0942V0.7548H26.7217ZM43.4564 0.7548L50.695 15.0901H47.3736L46.1929 12.5753H39.8923L38.7337 15.0901H35.5779L42.6178 0.7548H43.4564ZM59.7497 0.7548V15.0901H56.7043V0.7548H59.7497ZM73.1852 0.7548L73.254 0.755011C74.7415 0.764048 76.0722 1.06678 77.2458 1.66322C78.4375 2.26883 79.3663 3.11817 80.032 4.21123C80.6978 5.30428 81.0306 6.54136 81.0306 7.92245C81.0306 9.31832 80.6996 10.5609 80.0375 11.6503C79.3755 12.7397 78.4486 13.5853 77.2569 14.1872C76.0832 14.78 74.749 15.0809 73.2543 15.0899L73.1852 15.0901H67.7011V0.7548H73.1852ZM4.0401 0.711375L9.79552 7.78065L9.04692 8.69266L3.87408 15.0464H0L6.03978 7.77899L0.166025 0.711375H4.0401ZM10.0848 9.04571L15.2744 15.0464H11.3977L8.30129 11.1253L10.0848 9.04571ZM150.217 9.49522C151.076 9.49522 151.705 10.0046 151.73 10.7074H151.311C151.271 10.2072 150.831 9.87576 150.205 9.87576C149.593 9.87576 149.141 10.2164 149.141 10.7043C149.141 11.0849 149.416 11.3089 150.064 11.4746L150.541 11.5974C151.427 11.8214 151.8 12.162 151.8 12.7788C151.8 13.5552 151.177 14.0647 150.202 14.0647C149.279 14.0647 148.63 13.5522 148.585 12.7911H149.003C149.049 13.322 149.547 13.6841 150.238 13.6841C150.899 13.6841 151.372 13.322 151.372 12.8249C151.372 12.4106 151.088 12.1651 150.434 11.9994L149.887 11.8582C149.071 11.6495 148.707 11.3027 148.707 10.7197C148.707 10.0046 149.349 9.49522 150.217 9.49522ZM128.547 9.56581L130.194 13.9941H129.754L129.265 12.6377H127.413L126.924 13.9941H126.48L128.131 9.56581H128.547ZM124.991 9.56581V9.94634H123.533V13.9941H123.114V9.94634H121.66V9.56581H124.991ZM119.318 9.56581V9.94634H117.071V11.539H119.205V11.9134H117.071V13.6135H119.318V13.9941H116.655V9.56581H119.318ZM110.135 9.56581L111.77 13.4417H111.789L113.421 9.56581H113.904V13.9941H113.513V10.3606H113.494L111.96 13.9726H111.596L110.065 10.3606H110.046V13.9941H109.655V9.56581H110.135ZM132.243 9.56581L133.649 13.4724H133.667L135.076 9.56581H135.516L133.866 13.9941H133.45L131.799 9.56581H132.243ZM140.588 9.56581V9.94634H138.341V11.539H140.474V11.9134H138.341V13.6135H140.588V13.9941H137.925V9.56581H140.588ZM144.782 9.56581C145.644 9.56581 146.194 10.0722 146.194 10.8608C146.194 11.4869 145.839 11.9595 145.249 12.1129L146.319 13.9941H145.83L144.815 12.1804H143.642V13.9941H143.226V9.56581H144.782ZM157 9.56581V9.94634H154.753V11.539H156.887V11.9134H154.753V13.6135H157V13.9941H154.338V9.56581H157ZM72.7769 3.40251H70.7245V12.4535H72.7769C74.3732 12.4535 75.6201 12.0528 76.5176 11.2515C77.415 10.4501 77.8638 9.34047 77.8638 7.92245C77.8638 6.50443 77.415 5.3966 76.5176 4.59897C75.6201 3.80133 74.3732 3.40251 72.7769 3.40251ZM128.348 10.0844H128.33L127.538 12.2756H129.14L128.348 10.0844ZM144.733 9.9402H143.642V11.8091H144.748C145.39 11.8091 145.763 11.4654 145.763 10.8731C145.763 10.287 145.375 9.9402 144.733 9.9402ZM43.0261 5.74003L40.9957 10.1713H45.0895L43.0261 5.74003ZM26.5341 3.42467H24.1397V8.26588L24.1631 8.27059C24.5982 8.35607 25.2745 8.39882 26.192 8.39882C27.141 8.39882 27.895 8.18833 28.4541 7.76736C29.0132 7.34638 29.2927 6.67799 29.2927 5.76219C29.2927 5.0384 29.0886 4.46787 28.6803 4.05059C28.272 3.63331 27.5566 3.42467 26.5341 3.42467ZM15.4404 0.711375L10.2508 6.7121L8.46732 4.63246L11.5637 0.711375H15.4404ZM144.008 1.95336C144.935 1.95336 145.647 2.50881 145.812 3.3558H145.378C145.197 2.72362 144.681 2.34309 144.008 2.34309C143.052 2.34309 142.456 3.05812 142.456 4.21199C142.456 5.3812 143.064 6.13306 144.008 6.13306C144.861 6.13306 145.424 5.58681 145.424 4.7521V4.59559H144.054V4.22733H145.839V4.65389C145.839 5.8231 145.155 6.52279 144.008 6.52279C142.813 6.52279 142.028 5.60829 142.028 4.21199C142.028 2.84024 142.804 1.95336 144.008 1.95336ZM116.989 2.02394L118.636 6.45221H118.196L117.707 5.0958H115.855L115.365 6.45221H114.922L116.573 2.02394H116.989ZM111.242 2.02394C112 2.02394 112.513 2.46278 112.513 3.11643C112.513 3.60744 112.177 4.02786 111.706 4.11379V4.13527C112.318 4.20892 112.742 4.62321 112.742 5.23697C112.742 5.99189 112.183 6.45221 111.251 6.45221H109.655V2.02394H111.242ZM121.461 2.02394L124.047 5.72184H124.068V2.02394H124.481V6.45221H124.077L121.482 2.75124H121.461V6.45221H121.048V2.02394H121.461ZM127.648 2.02394V4.3194H127.672L129.769 2.02394H130.298L128.485 3.98183L130.478 6.45221H129.943L128.192 4.2795L127.648 4.87178V6.45221H127.232V2.02394H127.648ZM133.27 2.02394V6.45221H132.854V2.02394H133.27ZM136.434 2.02394L139.02 5.72184H139.041V2.02394H139.454V6.45221H139.05L136.455 2.75124H136.434V6.45221H136.021V2.02394H136.434ZM111.138 4.35315H110.071V6.08088H111.193C111.914 6.08088 112.314 5.7648 112.314 5.21548C112.314 4.6631 111.899 4.35315 111.138 4.35315ZM116.79 2.54257H116.772L115.98 4.73369H117.582L116.79 2.54257ZM111.153 2.39526H110.071V3.99104H111.031C111.7 3.99104 112.091 3.68416 112.091 3.16246C112.091 2.68066 111.74 2.39526 111.153 2.39526Z" fill="#1D1D1F"/>
</svg>
